ISO-10303-21;
HEADER;
FILE_DESCRIPTION((''),'2;1');
FILE_NAME('angleGusset.step','2026-08-11T00:00:00',(''),(''),'','','');
FILE_SCHEMA(('AUTOMOTIVE_DESIGN { 1 0 10303 214 3 1 1 }'));
ENDSEC;
DATA;
#1=CARTESIAN_POINT('',(0.000000,0.000000,0.0));
#2=CARTESIAN_POINT('',(25.000000,0.000000,0.0));
#3=CARTESIAN_POINT('',(0.000000,25.000000,0.0));
#4=CARTESIAN_POINT('',(0.000000,0.000000,6.000000));
#5=CARTESIAN_POINT('',(25.000000,0.000000,6.000000));
#6=CARTESIAN_POINT('',(0.000000,25.000000,6.000000));
#7=VERTEX_POINT('',#1);
#8=VERTEX_POINT('',#2);
#9=VERTEX_POINT('',#3);
#10=VERTEX_POINT('',#4);
#11=VERTEX_POINT('',#5);
#12=VERTEX_POINT('',#6);
#13=DIRECTION('',(1.000000,0.000000,0.000000));
#14=VECTOR('',#13,25.000000);
#15=LINE('',#1,#14);
#16=EDGE_CURVE('',#7,#8,#15,.T.);
#17=DIRECTION('',(-0.707107,0.707107,0.000000));
#18=VECTOR('',#17,35.355339);
#19=LINE('',#2,#18);
#20=EDGE_CURVE('',#8,#9,#19,.T.);
#21=DIRECTION('',(0.000000,-1.000000,0.000000));
#22=VECTOR('',#21,25.000000);
#23=LINE('',#3,#22);
#24=EDGE_CURVE('',#9,#7,#23,.T.);
#25=VECTOR('',#13,25.000000);
#26=LINE('',#4,#25);
#27=EDGE_CURVE('',#10,#11,#26,.T.);
#28=VECTOR('',#17,35.355339);
#29=LINE('',#5,#28);
#30=EDGE_CURVE('',#11,#12,#29,.T.);
#31=VECTOR('',#21,25.000000);
#32=LINE('',#6,#31);
#33=EDGE_CURVE('',#12,#10,#32,.T.);
#34=DIRECTION('',(0.000000,0.000000,1.000000));
#35=VECTOR('',#34,6.000000);
#36=LINE('',#1,#35);
#37=EDGE_CURVE('',#7,#10,#36,.T.);
#38=VECTOR('',#34,6.000000);
#39=LINE('',#2,#38);
#40=EDGE_CURVE('',#8,#11,#39,.T.);
#41=VECTOR('',#34,6.000000);
#42=LINE('',#3,#41);
#43=EDGE_CURVE('',#9,#12,#42,.T.);
#44=DIRECTION('',(0.000000,1.000000,0.000000));
#45=DIRECTION('',(0.000000,0.000000,-1.000000));
#46=ORIENTED_EDGE('',*,*,#16,.T.);
#47=ORIENTED_EDGE('',*,*,#20,.T.);
#48=ORIENTED_EDGE('',*,*,#24,.T.);
#49=EDGE_LOOP('',(#46,#47,#48));
#50=FACE_OUTER_BOUND('',#49,.T.);
#51=AXIS2_PLACEMENT_3D('',#1,#45,#13);
#52=PLANE('',#51);
#53=ADVANCED_FACE('',(#50),#52,.T.);
#54=ORIENTED_EDGE('',*,*,#27,.T.);
#55=ORIENTED_EDGE('',*,*,#30,.T.);
#56=ORIENTED_EDGE('',*,*,#33,.T.);
#57=EDGE_LOOP('',(#54,#55,#56));
#58=FACE_OUTER_BOUND('',#57,.T.);
#59=AXIS2_PLACEMENT_3D('',#4,#34,#13);
#60=PLANE('',#59);
#61=ADVANCED_FACE('',(#58),#60,.T.);
#62=ORIENTED_EDGE('',*,*,#16,.T.);
#63=ORIENTED_EDGE('',*,*,#40,.T.);
#64=ORIENTED_EDGE('',*,*,#27,.F.);
#65=ORIENTED_EDGE('',*,*,#37,.F.);
#66=EDGE_LOOP('',(#62,#63,#64,#65));
#67=FACE_OUTER_BOUND('',#66,.T.);
#68=AXIS2_PLACEMENT_3D('',#1,#21,#34);
#69=PLANE('',#68);
#70=ADVANCED_FACE('',(#67),#69,.T.);
#71=DIRECTION('',(0.707107,0.707107,0.000000));
#72=ORIENTED_EDGE('',*,*,#20,.T.);
#73=ORIENTED_EDGE('',*,*,#43,.T.);
#74=ORIENTED_EDGE('',*,*,#30,.F.);
#75=ORIENTED_EDGE('',*,*,#40,.F.);
#76=EDGE_LOOP('',(#72,#73,#74,#75));
#77=FACE_OUTER_BOUND('',#76,.T.);
#78=AXIS2_PLACEMENT_3D('',#2,#71,#34);
#79=PLANE('',#78);
#80=ADVANCED_FACE('',(#77),#79,.T.);
#81=DIRECTION('',(-1.000000,0.000000,0.000000));
#82=ORIENTED_EDGE('',*,*,#24,.T.);
#83=ORIENTED_EDGE('',*,*,#37,.T.);
#84=ORIENTED_EDGE('',*,*,#33,.F.);
#85=ORIENTED_EDGE('',*,*,#43,.F.);
#86=EDGE_LOOP('',(#82,#83,#84,#85));
#87=FACE_OUTER_BOUND('',#86,.T.);
#88=AXIS2_PLACEMENT_3D('',#3,#81,#34);
#89=PLANE('',#88);
#90=ADVANCED_FACE('',(#87),#89,.T.);
#91=CLOSED_SHELL('',(#53,#61,#70,#80,#90));
#92=MANIFOLD_SOLID_BREP('angleGusset',#91);
#93=(LENGTH_UNIT()NAMED_UNIT(*)SI_UNIT(.MILLI.,.METRE.));
#94=(NAMED_UNIT(*)PLANE_ANGLE_UNIT()SI_UNIT($,.RADIAN.));
#95=(NAMED_UNIT(*)SI_UNIT($,.STERADIAN.)SOLID_ANGLE_UNIT());
#96=UNCERTAINTY_MEASURE_WITH_UNIT(LENGTH_MEASURE(1.0E-6),#93,'distance_accuracy_value','confusion accuracy');
#97=(GEOMETRIC_REPRESENTATION_CONTEXT(3)GLOBAL_UNCERTAINTY_ASSIGNED_CONTEXT((#96))GLOBAL_UNIT_ASSIGNED_CONTEXT((#93,#94,#95))REPRESENTATION_CONTEXT('Context','3D'));
#98=SHAPE_REPRESENTATION('',(#92),#97);
#99=APPLICATION_CONTEXT('automotive design');
#100=PRODUCT_CONTEXT('',#99,'mechanical');
#101=PRODUCT('angleGusset','angleGusset','',(#100));
#102=PRODUCT_DEFINITION_FORMATION('','',#101);
#103=PRODUCT_DEFINITION_CONTEXT('part definition',#99,'design');
#104=PRODUCT_DEFINITION('design','',#102,#103);
#105=PRODUCT_DEFINITION_SHAPE('','',#104);
#106=SHAPE_DEFINITION_REPRESENTATION(#105,#98);
ENDSEC;
END-ISO-10303-21;
