ISO-10303-21;
HEADER;
FILE_DESCRIPTION((''),'2;1');
FILE_NAME('iBeamSegment.step','2026-08-11T00:00:00',(''),(''),'','','');
FILE_SCHEMA(('AUTOMOTIVE_DESIGN { 1 0 10303 214 3 1 1 }'));
ENDSEC;
DATA;
#1=CARTESIAN_POINT('',(-15.000000,-20.000000,0.0));
#2=CARTESIAN_POINT('',(15.000000,-20.000000,0.0));
#3=CARTESIAN_POINT('',(15.000000,-15.000000,0.0));
#4=CARTESIAN_POINT('',(3.000000,-15.000000,0.0));
#5=CARTESIAN_POINT('',(3.000000,15.000000,0.0));
#6=CARTESIAN_POINT('',(15.000000,15.000000,0.0));
#7=CARTESIAN_POINT('',(15.000000,20.000000,0.0));
#8=CARTESIAN_POINT('',(-15.000000,20.000000,0.0));
#9=CARTESIAN_POINT('',(-15.000000,15.000000,0.0));
#10=CARTESIAN_POINT('',(-3.000000,15.000000,0.0));
#11=CARTESIAN_POINT('',(-3.000000,-15.000000,0.0));
#12=CARTESIAN_POINT('',(-15.000000,-15.000000,0.0));
#13=CARTESIAN_POINT('',(-15.000000,-20.000000,60.000000));
#14=CARTESIAN_POINT('',(15.000000,-20.000000,60.000000));
#15=CARTESIAN_POINT('',(15.000000,-15.000000,60.000000));
#16=CARTESIAN_POINT('',(3.000000,-15.000000,60.000000));
#17=CARTESIAN_POINT('',(3.000000,15.000000,60.000000));
#18=CARTESIAN_POINT('',(15.000000,15.000000,60.000000));
#19=CARTESIAN_POINT('',(15.000000,20.000000,60.000000));
#20=CARTESIAN_POINT('',(-15.000000,20.000000,60.000000));
#21=CARTESIAN_POINT('',(-15.000000,15.000000,60.000000));
#22=CARTESIAN_POINT('',(-3.000000,15.000000,60.000000));
#23=CARTESIAN_POINT('',(-3.000000,-15.000000,60.000000));
#24=CARTESIAN_POINT('',(-15.000000,-15.000000,60.000000));
#25=VERTEX_POINT('',#1);
#26=VERTEX_POINT('',#2);
#27=VERTEX_POINT('',#3);
#28=VERTEX_POINT('',#4);
#29=VERTEX_POINT('',#5);
#30=VERTEX_POINT('',#6);
#31=VERTEX_POINT('',#7);
#32=VERTEX_POINT('',#8);
#33=VERTEX_POINT('',#9);
#34=VERTEX_POINT('',#10);
#35=VERTEX_POINT('',#11);
#36=VERTEX_POINT('',#12);
#37=VERTEX_POINT('',#13);
#38=VERTEX_POINT('',#14);
#39=VERTEX_POINT('',#15);
#40=VERTEX_POINT('',#16);
#41=VERTEX_POINT('',#17);
#42=VERTEX_POINT('',#18);
#43=VERTEX_POINT('',#19);
#44=VERTEX_POINT('',#20);
#45=VERTEX_POINT('',#21);
#46=VERTEX_POINT('',#22);
#47=VERTEX_POINT('',#23);
#48=VERTEX_POINT('',#24);
#49=DIRECTION('',(1.000000,0.000000,0.000000));
#50=VECTOR('',#49,30.000000);
#51=LINE('',#1,#50);
#52=EDGE_CURVE('',#25,#26,#51,.T.);
#53=DIRECTION('',(0.000000,1.000000,0.000000));
#54=VECTOR('',#53,5.000000);
#55=LINE('',#2,#54);
#56=EDGE_CURVE('',#26,#27,#55,.T.);
#57=DIRECTION('',(-1.000000,0.000000,0.000000));
#58=VECTOR('',#57,12.000000);
#59=LINE('',#3,#58);
#60=EDGE_CURVE('',#27,#28,#59,.T.);
#61=VECTOR('',#53,30.000000);
#62=LINE('',#4,#61);
#63=EDGE_CURVE('',#28,#29,#62,.T.);
#64=VECTOR('',#49,12.000000);
#65=LINE('',#5,#64);
#66=EDGE_CURVE('',#29,#30,#65,.T.);
#67=VECTOR('',#53,5.000000);
#68=LINE('',#6,#67);
#69=EDGE_CURVE('',#30,#31,#68,.T.);
#70=VECTOR('',#57,30.000000);
#71=LINE('',#7,#70);
#72=EDGE_CURVE('',#31,#32,#71,.T.);
#73=DIRECTION('',(0.000000,-1.000000,0.000000));
#74=VECTOR('',#73,5.000000);
#75=LINE('',#8,#74);
#76=EDGE_CURVE('',#32,#33,#75,.T.);
#77=VECTOR('',#49,12.000000);
#78=LINE('',#9,#77);
#79=EDGE_CURVE('',#33,#34,#78,.T.);
#80=VECTOR('',#73,30.000000);
#81=LINE('',#10,#80);
#82=EDGE_CURVE('',#34,#35,#81,.T.);
#83=VECTOR('',#57,12.000000);
#84=LINE('',#11,#83);
#85=EDGE_CURVE('',#35,#36,#84,.T.);
#86=VECTOR('',#73,5.000000);
#87=LINE('',#12,#86);
#88=EDGE_CURVE('',#36,#25,#87,.T.);
#89=VECTOR('',#49,30.000000);
#90=LINE('',#13,#89);
#91=EDGE_CURVE('',#37,#38,#90,.T.);
#92=VECTOR('',#53,5.000000);
#93=LINE('',#14,#92);
#94=EDGE_CURVE('',#38,#39,#93,.T.);
#95=VECTOR('',#57,12.000000);
#96=LINE('',#15,#95);
#97=EDGE_CURVE('',#39,#40,#96,.T.);
#98=VECTOR('',#53,30.000000);
#99=LINE('',#16,#98);
#100=EDGE_CURVE('',#40,#41,#99,.T.);
#101=VECTOR('',#49,12.000000);
#102=LINE('',#17,#101);
#103=EDGE_CURVE('',#41,#42,#102,.T.);
#104=VECTOR('',#53,5.000000);
#105=LINE('',#18,#104);
#106=EDGE_CURVE('',#42,#43,#105,.T.);
#107=VECTOR('',#57,30.000000);
#108=LINE('',#19,#107);
#109=EDGE_CURVE('',#43,#44,#108,.T.);
#110=VECTOR('',#73,5.000000);
#111=LINE('',#20,#110);
#112=EDGE_CURVE('',#44,#45,#111,.T.);
#113=VECTOR('',#49,12.000000);
#114=LINE('',#21,#113);
#115=EDGE_CURVE('',#45,#46,#114,.T.);
#116=VECTOR('',#73,30.000000);
#117=LINE('',#22,#116);
#118=EDGE_CURVE('',#46,#47,#117,.T.);
#119=VECTOR('',#57,12.000000);
#120=LINE('',#23,#119);
#121=EDGE_CURVE('',#47,#48,#120,.T.);
#122=VECTOR('',#73,5.000000);
#123=LINE('',#24,#122);
#124=EDGE_CURVE('',#48,#37,#123,.T.);
#125=DIRECTION('',(0.000000,0.000000,1.000000));
#126=VECTOR('',#125,60.000000);
#127=LINE('',#1,#126);
#128=EDGE_CURVE('',#25,#37,#127,.T.);
#129=VECTOR('',#125,60.000000);
#130=LINE('',#2,#129);
#131=EDGE_CURVE('',#26,#38,#130,.T.);
#132=VECTOR('',#125,60.000000);
#133=LINE('',#3,#132);
#134=EDGE_CURVE('',#27,#39,#133,.T.);
#135=VECTOR('',#125,60.000000);
#136=LINE('',#4,#135);
#137=EDGE_CURVE('',#28,#40,#136,.T.);
#138=VECTOR('',#125,60.000000);
#139=LINE('',#5,#138);
#140=EDGE_CURVE('',#29,#41,#139,.T.);
#141=VECTOR('',#125,60.000000);
#142=LINE('',#6,#141);
#143=EDGE_CURVE('',#30,#42,#142,.T.);
#144=VECTOR('',#125,60.000000);
#145=LINE('',#7,#144);
#146=EDGE_CURVE('',#31,#43,#145,.T.);
#147=VECTOR('',#125,60.000000);
#148=LINE('',#8,#147);
#149=EDGE_CURVE('',#32,#44,#148,.T.);
#150=VECTOR('',#125,60.000000);
#151=LINE('',#9,#150);
#152=EDGE_CURVE('',#33,#45,#151,.T.);
#153=VECTOR('',#125,60.000000);
#154=LINE('',#10,#153);
#155=EDGE_CURVE('',#34,#46,#154,.T.);
#156=VECTOR('',#125,60.000000);
#157=LINE('',#11,#156);
#158=EDGE_CURVE('',#35,#47,#157,.T.);
#159=VECTOR('',#125,60.000000);
#160=LINE('',#12,#159);
#161=EDGE_CURVE('',#36,#48,#160,.T.);
#162=DIRECTION('',(0.000000,0.000000,-1.000000));
#163=ORIENTED_EDGE('',*,*,#52,.T.);
#164=ORIENTED_EDGE('',*,*,#56,.T.);
#165=ORIENTED_EDGE('',*,*,#60,.T.);
#166=ORIENTED_EDGE('',*,*,#63,.T.);
#167=ORIENTED_EDGE('',*,*,#66,.T.);
#168=ORIENTED_EDGE('',*,*,#69,.T.);
#169=ORIENTED_EDGE('',*,*,#72,.T.);
#170=ORIENTED_EDGE('',*,*,#76,.T.);
#171=ORIENTED_EDGE('',*,*,#79,.T.);
#172=ORIENTED_EDGE('',*,*,#82,.T.);
#173=ORIENTED_EDGE('',*,*,#85,.T.);
#174=ORIENTED_EDGE('',*,*,#88,.T.);
#175=EDGE_LOOP('',(#163,#164,#165,#166,#167,#168,#169,#170,#171,#172,#173,#174));
#176=FACE_OUTER_BOUND('',#175,.T.);
#177=AXIS2_PLACEMENT_3D('',#1,#162,#49);
#178=PLANE('',#177);
#179=ADVANCED_FACE('',(#176),#178,.T.);
#180=ORIENTED_EDGE('',*,*,#91,.T.);
#181=ORIENTED_EDGE('',*,*,#94,.T.);
#182=ORIENTED_EDGE('',*,*,#97,.T.);
#183=ORIENTED_EDGE('',*,*,#100,.T.);
#184=ORIENTED_EDGE('',*,*,#103,.T.);
#185=ORIENTED_EDGE('',*,*,#106,.T.);
#186=ORIENTED_EDGE('',*,*,#109,.T.);
#187=ORIENTED_EDGE('',*,*,#112,.T.);
#188=ORIENTED_EDGE('',*,*,#115,.T.);
#189=ORIENTED_EDGE('',*,*,#118,.T.);
#190=ORIENTED_EDGE('',*,*,#121,.T.);
#191=ORIENTED_EDGE('',*,*,#124,.T.);
#192=EDGE_LOOP('',(#180,#181,#182,#183,#184,#185,#186,#187,#188,#189,#190,#191));
#193=FACE_OUTER_BOUND('',#192,.T.);
#194=AXIS2_PLACEMENT_3D('',#13,#125,#49);
#195=PLANE('',#194);
#196=ADVANCED_FACE('',(#193),#195,.T.);
#197=ORIENTED_EDGE('',*,*,#52,.T.);
#198=ORIENTED_EDGE('',*,*,#131,.T.);
#199=ORIENTED_EDGE('',*,*,#91,.F.);
#200=ORIENTED_EDGE('',*,*,#128,.F.);
#201=EDGE_LOOP('',(#197,#198,#199,#200));
#202=FACE_OUTER_BOUND('',#201,.T.);
#203=AXIS2_PLACEMENT_3D('',#1,#73,#125);
#204=PLANE('',#203);
#205=ADVANCED_FACE('',(#202),#204,.T.);
#206=ORIENTED_EDGE('',*,*,#56,.T.);
#207=ORIENTED_EDGE('',*,*,#134,.T.);
#208=ORIENTED_EDGE('',*,*,#94,.F.);
#209=ORIENTED_EDGE('',*,*,#131,.F.);
#210=EDGE_LOOP('',(#206,#207,#208,#209));
#211=FACE_OUTER_BOUND('',#210,.T.);
#212=AXIS2_PLACEMENT_3D('',#2,#49,#125);
#213=PLANE('',#212);
#214=ADVANCED_FACE('',(#211),#213,.T.);
#215=ORIENTED_EDGE('',*,*,#60,.T.);
#216=ORIENTED_EDGE('',*,*,#137,.T.);
#217=ORIENTED_EDGE('',*,*,#97,.F.);
#218=ORIENTED_EDGE('',*,*,#134,.F.);
#219=EDGE_LOOP('',(#215,#216,#217,#218));
#220=FACE_OUTER_BOUND('',#219,.T.);
#221=AXIS2_PLACEMENT_3D('',#3,#53,#125);
#222=PLANE('',#221);
#223=ADVANCED_FACE('',(#220),#222,.T.);
#224=ORIENTED_EDGE('',*,*,#63,.T.);
#225=ORIENTED_EDGE('',*,*,#140,.T.);
#226=ORIENTED_EDGE('',*,*,#100,.F.);
#227=ORIENTED_EDGE('',*,*,#137,.F.);
#228=EDGE_LOOP('',(#224,#225,#226,#227));
#229=FACE_OUTER_BOUND('',#228,.T.);
#230=AXIS2_PLACEMENT_3D('',#4,#49,#125);
#231=PLANE('',#230);
#232=ADVANCED_FACE('',(#229),#231,.T.);
#233=ORIENTED_EDGE('',*,*,#66,.T.);
#234=ORIENTED_EDGE('',*,*,#143,.T.);
#235=ORIENTED_EDGE('',*,*,#103,.F.);
#236=ORIENTED_EDGE('',*,*,#140,.F.);
#237=EDGE_LOOP('',(#233,#234,#235,#236));
#238=FACE_OUTER_BOUND('',#237,.T.);
#239=AXIS2_PLACEMENT_3D('',#5,#73,#125);
#240=PLANE('',#239);
#241=ADVANCED_FACE('',(#238),#240,.T.);
#242=ORIENTED_EDGE('',*,*,#69,.T.);
#243=ORIENTED_EDGE('',*,*,#146,.T.);
#244=ORIENTED_EDGE('',*,*,#106,.F.);
#245=ORIENTED_EDGE('',*,*,#143,.F.);
#246=EDGE_LOOP('',(#242,#243,#244,#245));
#247=FACE_OUTER_BOUND('',#246,.T.);
#248=AXIS2_PLACEMENT_3D('',#6,#49,#125);
#249=PLANE('',#248);
#250=ADVANCED_FACE('',(#247),#249,.T.);
#251=ORIENTED_EDGE('',*,*,#72,.T.);
#252=ORIENTED_EDGE('',*,*,#149,.T.);
#253=ORIENTED_EDGE('',*,*,#109,.F.);
#254=ORIENTED_EDGE('',*,*,#146,.F.);
#255=EDGE_LOOP('',(#251,#252,#253,#254));
#256=FACE_OUTER_BOUND('',#255,.T.);
#257=AXIS2_PLACEMENT_3D('',#7,#53,#125);
#258=PLANE('',#257);
#259=ADVANCED_FACE('',(#256),#258,.T.);
#260=ORIENTED_EDGE('',*,*,#76,.T.);
#261=ORIENTED_EDGE('',*,*,#152,.T.);
#262=ORIENTED_EDGE('',*,*,#112,.F.);
#263=ORIENTED_EDGE('',*,*,#149,.F.);
#264=EDGE_LOOP('',(#260,#261,#262,#263));
#265=FACE_OUTER_BOUND('',#264,.T.);
#266=AXIS2_PLACEMENT_3D('',#8,#57,#125);
#267=PLANE('',#266);
#268=ADVANCED_FACE('',(#265),#267,.T.);
#269=ORIENTED_EDGE('',*,*,#79,.T.);
#270=ORIENTED_EDGE('',*,*,#155,.T.);
#271=ORIENTED_EDGE('',*,*,#115,.F.);
#272=ORIENTED_EDGE('',*,*,#152,.F.);
#273=EDGE_LOOP('',(#269,#270,#271,#272));
#274=FACE_OUTER_BOUND('',#273,.T.);
#275=AXIS2_PLACEMENT_3D('',#9,#73,#125);
#276=PLANE('',#275);
#277=ADVANCED_FACE('',(#274),#276,.T.);
#278=ORIENTED_EDGE('',*,*,#82,.T.);
#279=ORIENTED_EDGE('',*,*,#158,.T.);
#280=ORIENTED_EDGE('',*,*,#118,.F.);
#281=ORIENTED_EDGE('',*,*,#155,.F.);
#282=EDGE_LOOP('',(#278,#279,#280,#281));
#283=FACE_OUTER_BOUND('',#282,.T.);
#284=AXIS2_PLACEMENT_3D('',#10,#57,#125);
#285=PLANE('',#284);
#286=ADVANCED_FACE('',(#283),#285,.T.);
#287=ORIENTED_EDGE('',*,*,#85,.T.);
#288=ORIENTED_EDGE('',*,*,#161,.T.);
#289=ORIENTED_EDGE('',*,*,#121,.F.);
#290=ORIENTED_EDGE('',*,*,#158,.F.);
#291=EDGE_LOOP('',(#287,#288,#289,#290));
#292=FACE_OUTER_BOUND('',#291,.T.);
#293=AXIS2_PLACEMENT_3D('',#11,#53,#125);
#294=PLANE('',#293);
#295=ADVANCED_FACE('',(#292),#294,.T.);
#296=ORIENTED_EDGE('',*,*,#88,.T.);
#297=ORIENTED_EDGE('',*,*,#128,.T.);
#298=ORIENTED_EDGE('',*,*,#124,.F.);
#299=ORIENTED_EDGE('',*,*,#161,.F.);
#300=EDGE_LOOP('',(#296,#297,#298,#299));
#301=FACE_OUTER_BOUND('',#300,.T.);
#302=AXIS2_PLACEMENT_3D('',#12,#57,#125);
#303=PLANE('',#302);
#304=ADVANCED_FACE('',(#301),#303,.T.);
#305=CLOSED_SHELL('',(#179,#196,#205,#214,#223,#232,#241,#250,#259,#268,#277,#286,#295,#304));
#306=MANIFOLD_SOLID_BREP('iBeamSegment',#305);
#307=(LENGTH_UNIT()NAMED_UNIT(*)SI_UNIT(.MILLI.,.METRE.));
#308=(NAMED_UNIT(*)PLANE_ANGLE_UNIT()SI_UNIT($,.RADIAN.));
#309=(NAMED_UNIT(*)SI_UNIT($,.STERADIAN.)SOLID_ANGLE_UNIT());
#310=UNCERTAINTY_MEASURE_WITH_UNIT(LENGTH_MEASURE(1.0E-6),#307,'distance_accuracy_value','confusion accuracy');
#311=(GEOMETRIC_REPRESENTATION_CONTEXT(3)GLOBAL_UNCERTAINTY_ASSIGNED_CONTEXT((#310))GLOBAL_UNIT_ASSIGNED_CONTEXT((#307,#308,#309))REPRESENTATION_CONTEXT('Context','3D'));
#312=SHAPE_REPRESENTATION('',(#306),#311);
#313=APPLICATION_CONTEXT('automotive design');
#314=PRODUCT_CONTEXT('',#313,'mechanical');
#315=PRODUCT('iBeamSegment','iBeamSegment','',(#314));
#316=PRODUCT_DEFINITION_FORMATION('','',#315);
#317=PRODUCT_DEFINITION_CONTEXT('part definition',#313,'design');
#318=PRODUCT_DEFINITION('design','',#316,#317);
#319=PRODUCT_DEFINITION_SHAPE('','',#318);
#320=SHAPE_DEFINITION_REPRESENTATION(#319,#312);
ENDSEC;
END-ISO-10303-21;
