ISO-10303-21;
HEADER;
FILE_DESCRIPTION((''),'2;1');
FILE_NAME('mountingPlate.step','2026-08-11T00:00:00',(''),(''),'','','');
FILE_SCHEMA(('AUTOMOTIVE_DESIGN { 1 0 10303 214 3 1 1 }'));
ENDSEC;
DATA;
#1=CARTESIAN_POINT('',(-20.000000,-15.000000,0.0));
#2=CARTESIAN_POINT('',(20.000000,-15.000000,0.0));
#3=CARTESIAN_POINT('',(25.000000,-10.000000,0.0));
#4=CARTESIAN_POINT('',(25.000000,10.000000,0.0));
#5=CARTESIAN_POINT('',(20.000000,15.000000,0.0));
#6=CARTESIAN_POINT('',(-20.000000,15.000000,0.0));
#7=CARTESIAN_POINT('',(-25.000000,10.000000,0.0));
#8=CARTESIAN_POINT('',(-25.000000,-10.000000,0.0));
#9=CARTESIAN_POINT('',(-20.000000,-15.000000,4.000000));
#10=CARTESIAN_POINT('',(20.000000,-15.000000,4.000000));
#11=CARTESIAN_POINT('',(25.000000,-10.000000,4.000000));
#12=CARTESIAN_POINT('',(25.000000,10.000000,4.000000));
#13=CARTESIAN_POINT('',(20.000000,15.000000,4.000000));
#14=CARTESIAN_POINT('',(-20.000000,15.000000,4.000000));
#15=CARTESIAN_POINT('',(-25.000000,10.000000,4.000000));
#16=CARTESIAN_POINT('',(-25.000000,-10.000000,4.000000));
#17=VERTEX_POINT('',#1);
#18=VERTEX_POINT('',#2);
#19=VERTEX_POINT('',#3);
#20=VERTEX_POINT('',#4);
#21=VERTEX_POINT('',#5);
#22=VERTEX_POINT('',#6);
#23=VERTEX_POINT('',#7);
#24=VERTEX_POINT('',#8);
#25=VERTEX_POINT('',#9);
#26=VERTEX_POINT('',#10);
#27=VERTEX_POINT('',#11);
#28=VERTEX_POINT('',#12);
#29=VERTEX_POINT('',#13);
#30=VERTEX_POINT('',#14);
#31=VERTEX_POINT('',#15);
#32=VERTEX_POINT('',#16);
#33=DIRECTION('',(1.000000,0.000000,0.000000));
#34=VECTOR('',#33,40.000000);
#35=LINE('',#1,#34);
#36=EDGE_CURVE('',#17,#18,#35,.T.);
#37=DIRECTION('',(0.707107,0.707107,0.000000));
#38=VECTOR('',#37,7.071068);
#39=LINE('',#2,#38);
#40=EDGE_CURVE('',#18,#19,#39,.T.);
#41=DIRECTION('',(0.000000,1.000000,0.000000));
#42=VECTOR('',#41,20.000000);
#43=LINE('',#3,#42);
#44=EDGE_CURVE('',#19,#20,#43,.T.);
#45=DIRECTION('',(-0.707107,0.707107,0.000000));
#46=VECTOR('',#45,7.071068);
#47=LINE('',#4,#46);
#48=EDGE_CURVE('',#20,#21,#47,.T.);
#49=DIRECTION('',(-1.000000,0.000000,0.000000));
#50=VECTOR('',#49,40.000000);
#51=LINE('',#5,#50);
#52=EDGE_CURVE('',#21,#22,#51,.T.);
#53=DIRECTION('',(-0.707107,-0.707107,0.000000));
#54=VECTOR('',#53,7.071068);
#55=LINE('',#6,#54);
#56=EDGE_CURVE('',#22,#23,#55,.T.);
#57=DIRECTION('',(0.000000,-1.000000,0.000000));
#58=VECTOR('',#57,20.000000);
#59=LINE('',#7,#58);
#60=EDGE_CURVE('',#23,#24,#59,.T.);
#61=DIRECTION('',(0.707107,-0.707107,0.000000));
#62=VECTOR('',#61,7.071068);
#63=LINE('',#8,#62);
#64=EDGE_CURVE('',#24,#17,#63,.T.);
#65=VECTOR('',#33,40.000000);
#66=LINE('',#9,#65);
#67=EDGE_CURVE('',#25,#26,#66,.T.);
#68=VECTOR('',#37,7.071068);
#69=LINE('',#10,#68);
#70=EDGE_CURVE('',#26,#27,#69,.T.);
#71=VECTOR('',#41,20.000000);
#72=LINE('',#11,#71);
#73=EDGE_CURVE('',#27,#28,#72,.T.);
#74=VECTOR('',#45,7.071068);
#75=LINE('',#12,#74);
#76=EDGE_CURVE('',#28,#29,#75,.T.);
#77=VECTOR('',#49,40.000000);
#78=LINE('',#13,#77);
#79=EDGE_CURVE('',#29,#30,#78,.T.);
#80=VECTOR('',#53,7.071068);
#81=LINE('',#14,#80);
#82=EDGE_CURVE('',#30,#31,#81,.T.);
#83=VECTOR('',#57,20.000000);
#84=LINE('',#15,#83);
#85=EDGE_CURVE('',#31,#32,#84,.T.);
#86=VECTOR('',#61,7.071068);
#87=LINE('',#16,#86);
#88=EDGE_CURVE('',#32,#25,#87,.T.);
#89=DIRECTION('',(0.000000,0.000000,1.000000));
#90=VECTOR('',#89,4.000000);
#91=LINE('',#1,#90);
#92=EDGE_CURVE('',#17,#25,#91,.T.);
#93=VECTOR('',#89,4.000000);
#94=LINE('',#2,#93);
#95=EDGE_CURVE('',#18,#26,#94,.T.);
#96=VECTOR('',#89,4.000000);
#97=LINE('',#3,#96);
#98=EDGE_CURVE('',#19,#27,#97,.T.);
#99=VECTOR('',#89,4.000000);
#100=LINE('',#4,#99);
#101=EDGE_CURVE('',#20,#28,#100,.T.);
#102=VECTOR('',#89,4.000000);
#103=LINE('',#5,#102);
#104=EDGE_CURVE('',#21,#29,#103,.T.);
#105=VECTOR('',#89,4.000000);
#106=LINE('',#6,#105);
#107=EDGE_CURVE('',#22,#30,#106,.T.);
#108=VECTOR('',#89,4.000000);
#109=LINE('',#7,#108);
#110=EDGE_CURVE('',#23,#31,#109,.T.);
#111=VECTOR('',#89,4.000000);
#112=LINE('',#8,#111);
#113=EDGE_CURVE('',#24,#32,#112,.T.);
#114=DIRECTION('',(0.000000,0.000000,-1.000000));
#115=ORIENTED_EDGE('',*,*,#36,.T.);
#116=ORIENTED_EDGE('',*,*,#40,.T.);
#117=ORIENTED_EDGE('',*,*,#44,.T.);
#118=ORIENTED_EDGE('',*,*,#48,.T.);
#119=ORIENTED_EDGE('',*,*,#52,.T.);
#120=ORIENTED_EDGE('',*,*,#56,.T.);
#121=ORIENTED_EDGE('',*,*,#60,.T.);
#122=ORIENTED_EDGE('',*,*,#64,.T.);
#123=EDGE_LOOP('',(#115,#116,#117,#118,#119,#120,#121,#122));
#124=FACE_OUTER_BOUND('',#123,.T.);
#125=AXIS2_PLACEMENT_3D('',#1,#114,#33);
#126=PLANE('',#125);
#127=ADVANCED_FACE('',(#124),#126,.T.);
#128=ORIENTED_EDGE('',*,*,#67,.T.);
#129=ORIENTED_EDGE('',*,*,#70,.T.);
#130=ORIENTED_EDGE('',*,*,#73,.T.);
#131=ORIENTED_EDGE('',*,*,#76,.T.);
#132=ORIENTED_EDGE('',*,*,#79,.T.);
#133=ORIENTED_EDGE('',*,*,#82,.T.);
#134=ORIENTED_EDGE('',*,*,#85,.T.);
#135=ORIENTED_EDGE('',*,*,#88,.T.);
#136=EDGE_LOOP('',(#128,#129,#130,#131,#132,#133,#134,#135));
#137=FACE_OUTER_BOUND('',#136,.T.);
#138=AXIS2_PLACEMENT_3D('',#9,#89,#33);
#139=PLANE('',#138);
#140=ADVANCED_FACE('',(#137),#139,.T.);
#141=ORIENTED_EDGE('',*,*,#36,.T.);
#142=ORIENTED_EDGE('',*,*,#95,.T.);
#143=ORIENTED_EDGE('',*,*,#67,.F.);
#144=ORIENTED_EDGE('',*,*,#92,.F.);
#145=EDGE_LOOP('',(#141,#142,#143,#144));
#146=FACE_OUTER_BOUND('',#145,.T.);
#147=AXIS2_PLACEMENT_3D('',#1,#57,#89);
#148=PLANE('',#147);
#149=ADVANCED_FACE('',(#146),#148,.T.);
#150=ORIENTED_EDGE('',*,*,#40,.T.);
#151=ORIENTED_EDGE('',*,*,#98,.T.);
#152=ORIENTED_EDGE('',*,*,#70,.F.);
#153=ORIENTED_EDGE('',*,*,#95,.F.);
#154=EDGE_LOOP('',(#150,#151,#152,#153));
#155=FACE_OUTER_BOUND('',#154,.T.);
#156=AXIS2_PLACEMENT_3D('',#2,#61,#89);
#157=PLANE('',#156);
#158=ADVANCED_FACE('',(#155),#157,.T.);
#159=ORIENTED_EDGE('',*,*,#44,.T.);
#160=ORIENTED_EDGE('',*,*,#101,.T.);
#161=ORIENTED_EDGE('',*,*,#73,.F.);
#162=ORIENTED_EDGE('',*,*,#98,.F.);
#163=EDGE_LOOP('',(#159,#160,#161,#162));
#164=FACE_OUTER_BOUND('',#163,.T.);
#165=AXIS2_PLACEMENT_3D('',#3,#33,#89);
#166=PLANE('',#165);
#167=ADVANCED_FACE('',(#164),#166,.T.);
#168=ORIENTED_EDGE('',*,*,#48,.T.);
#169=ORIENTED_EDGE('',*,*,#104,.T.);
#170=ORIENTED_EDGE('',*,*,#76,.F.);
#171=ORIENTED_EDGE('',*,*,#101,.F.);
#172=EDGE_LOOP('',(#168,#169,#170,#171));
#173=FACE_OUTER_BOUND('',#172,.T.);
#174=AXIS2_PLACEMENT_3D('',#4,#37,#89);
#175=PLANE('',#174);
#176=ADVANCED_FACE('',(#173),#175,.T.);
#177=ORIENTED_EDGE('',*,*,#52,.T.);
#178=ORIENTED_EDGE('',*,*,#107,.T.);
#179=ORIENTED_EDGE('',*,*,#79,.F.);
#180=ORIENTED_EDGE('',*,*,#104,.F.);
#181=EDGE_LOOP('',(#177,#178,#179,#180));
#182=FACE_OUTER_BOUND('',#181,.T.);
#183=AXIS2_PLACEMENT_3D('',#5,#41,#89);
#184=PLANE('',#183);
#185=ADVANCED_FACE('',(#182),#184,.T.);
#186=ORIENTED_EDGE('',*,*,#56,.T.);
#187=ORIENTED_EDGE('',*,*,#110,.T.);
#188=ORIENTED_EDGE('',*,*,#82,.F.);
#189=ORIENTED_EDGE('',*,*,#107,.F.);
#190=EDGE_LOOP('',(#186,#187,#188,#189));
#191=FACE_OUTER_BOUND('',#190,.T.);
#192=AXIS2_PLACEMENT_3D('',#6,#45,#89);
#193=PLANE('',#192);
#194=ADVANCED_FACE('',(#191),#193,.T.);
#195=ORIENTED_EDGE('',*,*,#60,.T.);
#196=ORIENTED_EDGE('',*,*,#113,.T.);
#197=ORIENTED_EDGE('',*,*,#85,.F.);
#198=ORIENTED_EDGE('',*,*,#110,.F.);
#199=EDGE_LOOP('',(#195,#196,#197,#198));
#200=FACE_OUTER_BOUND('',#199,.T.);
#201=AXIS2_PLACEMENT_3D('',#7,#49,#89);
#202=PLANE('',#201);
#203=ADVANCED_FACE('',(#200),#202,.T.);
#204=ORIENTED_EDGE('',*,*,#64,.T.);
#205=ORIENTED_EDGE('',*,*,#92,.T.);
#206=ORIENTED_EDGE('',*,*,#88,.F.);
#207=ORIENTED_EDGE('',*,*,#113,.F.);
#208=EDGE_LOOP('',(#204,#205,#206,#207));
#209=FACE_OUTER_BOUND('',#208,.T.);
#210=AXIS2_PLACEMENT_3D('',#8,#53,#89);
#211=PLANE('',#210);
#212=ADVANCED_FACE('',(#209),#211,.T.);
#213=CLOSED_SHELL('',(#127,#140,#149,#158,#167,#176,#185,#194,#203,#212));
#214=MANIFOLD_SOLID_BREP('mountingPlate',#213);
#215=(LENGTH_UNIT()NAMED_UNIT(*)SI_UNIT(.MILLI.,.METRE.));
#216=(NAMED_UNIT(*)PLANE_ANGLE_UNIT()SI_UNIT($,.RADIAN.));
#217=(NAMED_UNIT(*)SI_UNIT($,.STERADIAN.)SOLID_ANGLE_UNIT());
#218=UNCERTAINTY_MEASURE_WITH_UNIT(LENGTH_MEASURE(1.0E-6),#215,'distance_accuracy_value','confusion accuracy');
#219=(GEOMETRIC_REPRESENTATION_CONTEXT(3)GLOBAL_UNCERTAINTY_ASSIGNED_CONTEXT((#218))GLOBAL_UNIT_ASSIGNED_CONTEXT((#215,#216,#217))REPRESENTATION_CONTEXT('Context','3D'));
#220=SHAPE_REPRESENTATION('',(#214),#219);
#221=APPLICATION_CONTEXT('automotive design');
#222=PRODUCT_CONTEXT('',#221,'mechanical');
#223=PRODUCT('mountingPlate','mountingPlate','',(#222));
#224=PRODUCT_DEFINITION_FORMATION('','',#223);
#225=PRODUCT_DEFINITION_CONTEXT('part definition',#221,'design');
#226=PRODUCT_DEFINITION('design','',#224,#225);
#227=PRODUCT_DEFINITION_SHAPE('','',#226);
#228=SHAPE_DEFINITION_REPRESENTATION(#227,#220);
ENDSEC;
END-ISO-10303-21;
