ISO-10303-21;
HEADER;
FILE_DESCRIPTION((''),'2;1');
FILE_NAME('hexStandoff.step','2026-08-11T00:00:00',(''),(''),'','','');
FILE_SCHEMA(('AUTOMOTIVE_DESIGN { 1 0 10303 214 3 1 1 }'));
ENDSEC;
DATA;
#1=CARTESIAN_POINT('',(8.000000,0.000000,0.0));
#2=CARTESIAN_POINT('',(4.000000,6.928203,0.0));
#3=CARTESIAN_POINT('',(-4.000000,6.928203,0.0));
#4=CARTESIAN_POINT('',(-8.000000,0.000000,0.0));
#5=CARTESIAN_POINT('',(-4.000000,-6.928203,0.0));
#6=CARTESIAN_POINT('',(4.000000,-6.928203,0.0));
#7=CARTESIAN_POINT('',(8.000000,0.000000,20.000000));
#8=CARTESIAN_POINT('',(4.000000,6.928203,20.000000));
#9=CARTESIAN_POINT('',(-4.000000,6.928203,20.000000));
#10=CARTESIAN_POINT('',(-8.000000,0.000000,20.000000));
#11=CARTESIAN_POINT('',(-4.000000,-6.928203,20.000000));
#12=CARTESIAN_POINT('',(4.000000,-6.928203,20.000000));
#13=VERTEX_POINT('',#1);
#14=VERTEX_POINT('',#2);
#15=VERTEX_POINT('',#3);
#16=VERTEX_POINT('',#4);
#17=VERTEX_POINT('',#5);
#18=VERTEX_POINT('',#6);
#19=VERTEX_POINT('',#7);
#20=VERTEX_POINT('',#8);
#21=VERTEX_POINT('',#9);
#22=VERTEX_POINT('',#10);
#23=VERTEX_POINT('',#11);
#24=VERTEX_POINT('',#12);
#25=DIRECTION('',(-0.500000,0.866025,0.000000));
#26=VECTOR('',#25,8.000000);
#27=LINE('',#1,#26);
#28=EDGE_CURVE('',#13,#14,#27,.T.);
#29=DIRECTION('',(-1.000000,0.000000,0.000000));
#30=VECTOR('',#29,8.000000);
#31=LINE('',#2,#30);
#32=EDGE_CURVE('',#14,#15,#31,.T.);
#33=DIRECTION('',(-0.500000,-0.866025,0.000000));
#34=VECTOR('',#33,8.000000);
#35=LINE('',#3,#34);
#36=EDGE_CURVE('',#15,#16,#35,.T.);
#37=DIRECTION('',(0.500000,-0.866025,0.000000));
#38=VECTOR('',#37,8.000000);
#39=LINE('',#4,#38);
#40=EDGE_CURVE('',#16,#17,#39,.T.);
#41=DIRECTION('',(1.000000,-0.000000,0.000000));
#42=VECTOR('',#41,8.000000);
#43=LINE('',#5,#42);
#44=EDGE_CURVE('',#17,#18,#43,.T.);
#45=DIRECTION('',(0.500000,0.866025,0.000000));
#46=VECTOR('',#45,8.000000);
#47=LINE('',#6,#46);
#48=EDGE_CURVE('',#18,#13,#47,.T.);
#49=VECTOR('',#25,8.000000);
#50=LINE('',#7,#49);
#51=EDGE_CURVE('',#19,#20,#50,.T.);
#52=VECTOR('',#29,8.000000);
#53=LINE('',#8,#52);
#54=EDGE_CURVE('',#20,#21,#53,.T.);
#55=VECTOR('',#33,8.000000);
#56=LINE('',#9,#55);
#57=EDGE_CURVE('',#21,#22,#56,.T.);
#58=VECTOR('',#37,8.000000);
#59=LINE('',#10,#58);
#60=EDGE_CURVE('',#22,#23,#59,.T.);
#61=VECTOR('',#41,8.000000);
#62=LINE('',#11,#61);
#63=EDGE_CURVE('',#23,#24,#62,.T.);
#64=VECTOR('',#45,8.000000);
#65=LINE('',#12,#64);
#66=EDGE_CURVE('',#24,#19,#65,.T.);
#67=DIRECTION('',(0.000000,0.000000,1.000000));
#68=VECTOR('',#67,20.000000);
#69=LINE('',#1,#68);
#70=EDGE_CURVE('',#13,#19,#69,.T.);
#71=VECTOR('',#67,20.000000);
#72=LINE('',#2,#71);
#73=EDGE_CURVE('',#14,#20,#72,.T.);
#74=VECTOR('',#67,20.000000);
#75=LINE('',#3,#74);
#76=EDGE_CURVE('',#15,#21,#75,.T.);
#77=VECTOR('',#67,20.000000);
#78=LINE('',#4,#77);
#79=EDGE_CURVE('',#16,#22,#78,.T.);
#80=VECTOR('',#67,20.000000);
#81=LINE('',#5,#80);
#82=EDGE_CURVE('',#17,#23,#81,.T.);
#83=VECTOR('',#67,20.000000);
#84=LINE('',#6,#83);
#85=EDGE_CURVE('',#18,#24,#84,.T.);
#86=DIRECTION('',(1.000000,0.000000,0.000000));
#87=DIRECTION('',(0.000000,1.000000,0.000000));
#88=DIRECTION('',(0.000000,0.000000,-1.000000));
#89=ORIENTED_EDGE('',*,*,#28,.T.);
#90=ORIENTED_EDGE('',*,*,#32,.T.);
#91=ORIENTED_EDGE('',*,*,#36,.T.);
#92=ORIENTED_EDGE('',*,*,#40,.T.);
#93=ORIENTED_EDGE('',*,*,#44,.T.);
#94=ORIENTED_EDGE('',*,*,#48,.T.);
#95=EDGE_LOOP('',(#89,#90,#91,#92,#93,#94));
#96=FACE_OUTER_BOUND('',#95,.T.);
#97=AXIS2_PLACEMENT_3D('',#1,#88,#86);
#98=PLANE('',#97);
#99=ADVANCED_FACE('',(#96),#98,.T.);
#100=ORIENTED_EDGE('',*,*,#51,.T.);
#101=ORIENTED_EDGE('',*,*,#54,.T.);
#102=ORIENTED_EDGE('',*,*,#57,.T.);
#103=ORIENTED_EDGE('',*,*,#60,.T.);
#104=ORIENTED_EDGE('',*,*,#63,.T.);
#105=ORIENTED_EDGE('',*,*,#66,.T.);
#106=EDGE_LOOP('',(#100,#101,#102,#103,#104,#105));
#107=FACE_OUTER_BOUND('',#106,.T.);
#108=AXIS2_PLACEMENT_3D('',#7,#67,#86);
#109=PLANE('',#108);
#110=ADVANCED_FACE('',(#107),#109,.T.);
#111=DIRECTION('',(0.866025,0.500000,0.000000));
#112=ORIENTED_EDGE('',*,*,#28,.T.);
#113=ORIENTED_EDGE('',*,*,#73,.T.);
#114=ORIENTED_EDGE('',*,*,#51,.F.);
#115=ORIENTED_EDGE('',*,*,#70,.F.);
#116=EDGE_LOOP('',(#112,#113,#114,#115));
#117=FACE_OUTER_BOUND('',#116,.T.);
#118=AXIS2_PLACEMENT_3D('',#1,#111,#67);
#119=PLANE('',#118);
#120=ADVANCED_FACE('',(#117),#119,.T.);
#121=ORIENTED_EDGE('',*,*,#32,.T.);
#122=ORIENTED_EDGE('',*,*,#76,.T.);
#123=ORIENTED_EDGE('',*,*,#54,.F.);
#124=ORIENTED_EDGE('',*,*,#73,.F.);
#125=EDGE_LOOP('',(#121,#122,#123,#124));
#126=FACE_OUTER_BOUND('',#125,.T.);
#127=AXIS2_PLACEMENT_3D('',#2,#87,#67);
#128=PLANE('',#127);
#129=ADVANCED_FACE('',(#126),#128,.T.);
#130=DIRECTION('',(-0.866025,0.500000,0.000000));
#131=ORIENTED_EDGE('',*,*,#36,.T.);
#132=ORIENTED_EDGE('',*,*,#79,.T.);
#133=ORIENTED_EDGE('',*,*,#57,.F.);
#134=ORIENTED_EDGE('',*,*,#76,.F.);
#135=EDGE_LOOP('',(#131,#132,#133,#134));
#136=FACE_OUTER_BOUND('',#135,.T.);
#137=AXIS2_PLACEMENT_3D('',#3,#130,#67);
#138=PLANE('',#137);
#139=ADVANCED_FACE('',(#136),#138,.T.);
#140=DIRECTION('',(-0.866025,-0.500000,0.000000));
#141=ORIENTED_EDGE('',*,*,#40,.T.);
#142=ORIENTED_EDGE('',*,*,#82,.T.);
#143=ORIENTED_EDGE('',*,*,#60,.F.);
#144=ORIENTED_EDGE('',*,*,#79,.F.);
#145=EDGE_LOOP('',(#141,#142,#143,#144));
#146=FACE_OUTER_BOUND('',#145,.T.);
#147=AXIS2_PLACEMENT_3D('',#4,#140,#67);
#148=PLANE('',#147);
#149=ADVANCED_FACE('',(#146),#148,.T.);
#150=DIRECTION('',(-0.000000,-1.000000,0.000000));
#151=ORIENTED_EDGE('',*,*,#44,.T.);
#152=ORIENTED_EDGE('',*,*,#85,.T.);
#153=ORIENTED_EDGE('',*,*,#63,.F.);
#154=ORIENTED_EDGE('',*,*,#82,.F.);
#155=EDGE_LOOP('',(#151,#152,#153,#154));
#156=FACE_OUTER_BOUND('',#155,.T.);
#157=AXIS2_PLACEMENT_3D('',#5,#150,#67);
#158=PLANE('',#157);
#159=ADVANCED_FACE('',(#156),#158,.T.);
#160=DIRECTION('',(0.866025,-0.500000,0.000000));
#161=ORIENTED_EDGE('',*,*,#48,.T.);
#162=ORIENTED_EDGE('',*,*,#70,.T.);
#163=ORIENTED_EDGE('',*,*,#66,.F.);
#164=ORIENTED_EDGE('',*,*,#85,.F.);
#165=EDGE_LOOP('',(#161,#162,#163,#164));
#166=FACE_OUTER_BOUND('',#165,.T.);
#167=AXIS2_PLACEMENT_3D('',#6,#160,#67);
#168=PLANE('',#167);
#169=ADVANCED_FACE('',(#166),#168,.T.);
#170=CLOSED_SHELL('',(#99,#110,#120,#129,#139,#149,#159,#169));
#171=MANIFOLD_SOLID_BREP('hexStandoff',#170);
#172=(LENGTH_UNIT()NAMED_UNIT(*)SI_UNIT(.MILLI.,.METRE.));
#173=(NAMED_UNIT(*)PLANE_ANGLE_UNIT()SI_UNIT($,.RADIAN.));
#174=(NAMED_UNIT(*)SI_UNIT($,.STERADIAN.)SOLID_ANGLE_UNIT());
#175=UNCERTAINTY_MEASURE_WITH_UNIT(LENGTH_MEASURE(1.0E-6),#172,'distance_accuracy_value','confusion accuracy');
#176=(GEOMETRIC_REPRESENTATION_CONTEXT(3)GLOBAL_UNCERTAINTY_ASSIGNED_CONTEXT((#175))GLOBAL_UNIT_ASSIGNED_CONTEXT((#172,#173,#174))REPRESENTATION_CONTEXT('Context','3D'));
#177=SHAPE_REPRESENTATION('',(#171),#176);
#178=APPLICATION_CONTEXT('automotive design');
#179=PRODUCT_CONTEXT('',#178,'mechanical');
#180=PRODUCT('hexStandoff','hexStandoff','',(#179));
#181=PRODUCT_DEFINITION_FORMATION('','',#180);
#182=PRODUCT_DEFINITION_CONTEXT('part definition',#178,'design');
#183=PRODUCT_DEFINITION('design','',#181,#182);
#184=PRODUCT_DEFINITION_SHAPE('','',#183);
#185=SHAPE_DEFINITION_REPRESENTATION(#184,#177);
ENDSEC;
END-ISO-10303-21;
