ISO-10303-21;
HEADER;
FILE_DESCRIPTION((''),'2;1');
FILE_NAME('lBracket.step','2026-08-11T00:00:00',(''),(''),'','','');
FILE_SCHEMA(('AUTOMOTIVE_DESIGN { 1 0 10303 214 3 1 1 }'));
ENDSEC;
DATA;
#1=CARTESIAN_POINT('',(0.000000,0.000000,0.0));
#2=CARTESIAN_POINT('',(30.000000,0.000000,0.0));
#3=CARTESIAN_POINT('',(30.000000,10.000000,0.0));
#4=CARTESIAN_POINT('',(10.000000,10.000000,0.0));
#5=CARTESIAN_POINT('',(10.000000,30.000000,0.0));
#6=CARTESIAN_POINT('',(0.000000,30.000000,0.0));
#7=CARTESIAN_POINT('',(0.000000,0.000000,8.000000));
#8=CARTESIAN_POINT('',(30.000000,0.000000,8.000000));
#9=CARTESIAN_POINT('',(30.000000,10.000000,8.000000));
#10=CARTESIAN_POINT('',(10.000000,10.000000,8.000000));
#11=CARTESIAN_POINT('',(10.000000,30.000000,8.000000));
#12=CARTESIAN_POINT('',(0.000000,30.000000,8.000000));
#13=VERTEX_POINT('',#1);
#14=VERTEX_POINT('',#2);
#15=VERTEX_POINT('',#3);
#16=VERTEX_POINT('',#4);
#17=VERTEX_POINT('',#5);
#18=VERTEX_POINT('',#6);
#19=VERTEX_POINT('',#7);
#20=VERTEX_POINT('',#8);
#21=VERTEX_POINT('',#9);
#22=VERTEX_POINT('',#10);
#23=VERTEX_POINT('',#11);
#24=VERTEX_POINT('',#12);
#25=DIRECTION('',(1.000000,0.000000,0.000000));
#26=VECTOR('',#25,30.000000);
#27=LINE('',#1,#26);
#28=EDGE_CURVE('',#13,#14,#27,.T.);
#29=DIRECTION('',(0.000000,1.000000,0.000000));
#30=VECTOR('',#29,10.000000);
#31=LINE('',#2,#30);
#32=EDGE_CURVE('',#14,#15,#31,.T.);
#33=DIRECTION('',(-1.000000,0.000000,0.000000));
#34=VECTOR('',#33,20.000000);
#35=LINE('',#3,#34);
#36=EDGE_CURVE('',#15,#16,#35,.T.);
#37=VECTOR('',#29,20.000000);
#38=LINE('',#4,#37);
#39=EDGE_CURVE('',#16,#17,#38,.T.);
#40=VECTOR('',#33,10.000000);
#41=LINE('',#5,#40);
#42=EDGE_CURVE('',#17,#18,#41,.T.);
#43=DIRECTION('',(0.000000,-1.000000,0.000000));
#44=VECTOR('',#43,30.000000);
#45=LINE('',#6,#44);
#46=EDGE_CURVE('',#18,#13,#45,.T.);
#47=VECTOR('',#25,30.000000);
#48=LINE('',#7,#47);
#49=EDGE_CURVE('',#19,#20,#48,.T.);
#50=VECTOR('',#29,10.000000);
#51=LINE('',#8,#50);
#52=EDGE_CURVE('',#20,#21,#51,.T.);
#53=VECTOR('',#33,20.000000);
#54=LINE('',#9,#53);
#55=EDGE_CURVE('',#21,#22,#54,.T.);
#56=VECTOR('',#29,20.000000);
#57=LINE('',#10,#56);
#58=EDGE_CURVE('',#22,#23,#57,.T.);
#59=VECTOR('',#33,10.000000);
#60=LINE('',#11,#59);
#61=EDGE_CURVE('',#23,#24,#60,.T.);
#62=VECTOR('',#43,30.000000);
#63=LINE('',#12,#62);
#64=EDGE_CURVE('',#24,#19,#63,.T.);
#65=DIRECTION('',(0.000000,0.000000,1.000000));
#66=VECTOR('',#65,8.000000);
#67=LINE('',#1,#66);
#68=EDGE_CURVE('',#13,#19,#67,.T.);
#69=VECTOR('',#65,8.000000);
#70=LINE('',#2,#69);
#71=EDGE_CURVE('',#14,#20,#70,.T.);
#72=VECTOR('',#65,8.000000);
#73=LINE('',#3,#72);
#74=EDGE_CURVE('',#15,#21,#73,.T.);
#75=VECTOR('',#65,8.000000);
#76=LINE('',#4,#75);
#77=EDGE_CURVE('',#16,#22,#76,.T.);
#78=VECTOR('',#65,8.000000);
#79=LINE('',#5,#78);
#80=EDGE_CURVE('',#17,#23,#79,.T.);
#81=VECTOR('',#65,8.000000);
#82=LINE('',#6,#81);
#83=EDGE_CURVE('',#18,#24,#82,.T.);
#84=DIRECTION('',(0.000000,0.000000,-1.000000));
#85=ORIENTED_EDGE('',*,*,#28,.T.);
#86=ORIENTED_EDGE('',*,*,#32,.T.);
#87=ORIENTED_EDGE('',*,*,#36,.T.);
#88=ORIENTED_EDGE('',*,*,#39,.T.);
#89=ORIENTED_EDGE('',*,*,#42,.T.);
#90=ORIENTED_EDGE('',*,*,#46,.T.);
#91=EDGE_LOOP('',(#85,#86,#87,#88,#89,#90));
#92=FACE_OUTER_BOUND('',#91,.T.);
#93=AXIS2_PLACEMENT_3D('',#1,#84,#25);
#94=PLANE('',#93);
#95=ADVANCED_FACE('',(#92),#94,.T.);
#96=ORIENTED_EDGE('',*,*,#49,.T.);
#97=ORIENTED_EDGE('',*,*,#52,.T.);
#98=ORIENTED_EDGE('',*,*,#55,.T.);
#99=ORIENTED_EDGE('',*,*,#58,.T.);
#100=ORIENTED_EDGE('',*,*,#61,.T.);
#101=ORIENTED_EDGE('',*,*,#64,.T.);
#102=EDGE_LOOP('',(#96,#97,#98,#99,#100,#101));
#103=FACE_OUTER_BOUND('',#102,.T.);
#104=AXIS2_PLACEMENT_3D('',#7,#65,#25);
#105=PLANE('',#104);
#106=ADVANCED_FACE('',(#103),#105,.T.);
#107=ORIENTED_EDGE('',*,*,#28,.T.);
#108=ORIENTED_EDGE('',*,*,#71,.T.);
#109=ORIENTED_EDGE('',*,*,#49,.F.);
#110=ORIENTED_EDGE('',*,*,#68,.F.);
#111=EDGE_LOOP('',(#107,#108,#109,#110));
#112=FACE_OUTER_BOUND('',#111,.T.);
#113=AXIS2_PLACEMENT_3D('',#1,#43,#65);
#114=PLANE('',#113);
#115=ADVANCED_FACE('',(#112),#114,.T.);
#116=ORIENTED_EDGE('',*,*,#32,.T.);
#117=ORIENTED_EDGE('',*,*,#74,.T.);
#118=ORIENTED_EDGE('',*,*,#52,.F.);
#119=ORIENTED_EDGE('',*,*,#71,.F.);
#120=EDGE_LOOP('',(#116,#117,#118,#119));
#121=FACE_OUTER_BOUND('',#120,.T.);
#122=AXIS2_PLACEMENT_3D('',#2,#25,#65);
#123=PLANE('',#122);
#124=ADVANCED_FACE('',(#121),#123,.T.);
#125=ORIENTED_EDGE('',*,*,#36,.T.);
#126=ORIENTED_EDGE('',*,*,#77,.T.);
#127=ORIENTED_EDGE('',*,*,#55,.F.);
#128=ORIENTED_EDGE('',*,*,#74,.F.);
#129=EDGE_LOOP('',(#125,#126,#127,#128));
#130=FACE_OUTER_BOUND('',#129,.T.);
#131=AXIS2_PLACEMENT_3D('',#3,#29,#65);
#132=PLANE('',#131);
#133=ADVANCED_FACE('',(#130),#132,.T.);
#134=ORIENTED_EDGE('',*,*,#39,.T.);
#135=ORIENTED_EDGE('',*,*,#80,.T.);
#136=ORIENTED_EDGE('',*,*,#58,.F.);
#137=ORIENTED_EDGE('',*,*,#77,.F.);
#138=EDGE_LOOP('',(#134,#135,#136,#137));
#139=FACE_OUTER_BOUND('',#138,.T.);
#140=AXIS2_PLACEMENT_3D('',#4,#25,#65);
#141=PLANE('',#140);
#142=ADVANCED_FACE('',(#139),#141,.T.);
#143=ORIENTED_EDGE('',*,*,#42,.T.);
#144=ORIENTED_EDGE('',*,*,#83,.T.);
#145=ORIENTED_EDGE('',*,*,#61,.F.);
#146=ORIENTED_EDGE('',*,*,#80,.F.);
#147=EDGE_LOOP('',(#143,#144,#145,#146));
#148=FACE_OUTER_BOUND('',#147,.T.);
#149=AXIS2_PLACEMENT_3D('',#5,#29,#65);
#150=PLANE('',#149);
#151=ADVANCED_FACE('',(#148),#150,.T.);
#152=ORIENTED_EDGE('',*,*,#46,.T.);
#153=ORIENTED_EDGE('',*,*,#68,.T.);
#154=ORIENTED_EDGE('',*,*,#64,.F.);
#155=ORIENTED_EDGE('',*,*,#83,.F.);
#156=EDGE_LOOP('',(#152,#153,#154,#155));
#157=FACE_OUTER_BOUND('',#156,.T.);
#158=AXIS2_PLACEMENT_3D('',#6,#33,#65);
#159=PLANE('',#158);
#160=ADVANCED_FACE('',(#157),#159,.T.);
#161=CLOSED_SHELL('',(#95,#106,#115,#124,#133,#142,#151,#160));
#162=MANIFOLD_SOLID_BREP('lBracket',#161);
#163=(LENGTH_UNIT()NAMED_UNIT(*)SI_UNIT(.MILLI.,.METRE.));
#164=(NAMED_UNIT(*)PLANE_ANGLE_UNIT()SI_UNIT($,.RADIAN.));
#165=(NAMED_UNIT(*)SI_UNIT($,.STERADIAN.)SOLID_ANGLE_UNIT());
#166=UNCERTAINTY_MEASURE_WITH_UNIT(LENGTH_MEASURE(1.0E-6),#163,'distance_accuracy_value','confusion accuracy');
#167=(GEOMETRIC_REPRESENTATION_CONTEXT(3)GLOBAL_UNCERTAINTY_ASSIGNED_CONTEXT((#166))GLOBAL_UNIT_ASSIGNED_CONTEXT((#163,#164,#165))REPRESENTATION_CONTEXT('Context','3D'));
#168=SHAPE_REPRESENTATION('',(#162),#167);
#169=APPLICATION_CONTEXT('automotive design');
#170=PRODUCT_CONTEXT('',#169,'mechanical');
#171=PRODUCT('lBracket','lBracket','',(#170));
#172=PRODUCT_DEFINITION_FORMATION('','',#171);
#173=PRODUCT_DEFINITION_CONTEXT('part definition',#169,'design');
#174=PRODUCT_DEFINITION('design','',#172,#173);
#175=PRODUCT_DEFINITION_SHAPE('','',#174);
#176=SHAPE_DEFINITION_REPRESENTATION(#175,#168);
ENDSEC;
END-ISO-10303-21;
