ISO-10303-21;
HEADER;
FILE_DESCRIPTION((''),'2;1');
FILE_NAME('terminalBlock.step','2026-08-11T00:00:00',(''),(''),'','','');
FILE_SCHEMA(('AUTOMOTIVE_DESIGN { 1 0 10303 214 3 1 1 }'));
ENDSEC;
DATA;
#1=CARTESIAN_POINT('',(-20.000000,-10.000000,0.0));
#2=CARTESIAN_POINT('',(20.000000,-10.000000,0.0));
#3=CARTESIAN_POINT('',(20.000000,10.000000,0.0));
#4=CARTESIAN_POINT('',(5.000000,10.000000,0.0));
#5=CARTESIAN_POINT('',(5.000000,2.000000,0.0));
#6=CARTESIAN_POINT('',(-5.000000,2.000000,0.0));
#7=CARTESIAN_POINT('',(-5.000000,10.000000,0.0));
#8=CARTESIAN_POINT('',(-20.000000,10.000000,0.0));
#9=CARTESIAN_POINT('',(-20.000000,-10.000000,15.000000));
#10=CARTESIAN_POINT('',(20.000000,-10.000000,15.000000));
#11=CARTESIAN_POINT('',(20.000000,10.000000,15.000000));
#12=CARTESIAN_POINT('',(5.000000,10.000000,15.000000));
#13=CARTESIAN_POINT('',(5.000000,2.000000,15.000000));
#14=CARTESIAN_POINT('',(-5.000000,2.000000,15.000000));
#15=CARTESIAN_POINT('',(-5.000000,10.000000,15.000000));
#16=CARTESIAN_POINT('',(-20.000000,10.000000,15.000000));
#17=VERTEX_POINT('',#1);
#18=VERTEX_POINT('',#2);
#19=VERTEX_POINT('',#3);
#20=VERTEX_POINT('',#4);
#21=VERTEX_POINT('',#5);
#22=VERTEX_POINT('',#6);
#23=VERTEX_POINT('',#7);
#24=VERTEX_POINT('',#8);
#25=VERTEX_POINT('',#9);
#26=VERTEX_POINT('',#10);
#27=VERTEX_POINT('',#11);
#28=VERTEX_POINT('',#12);
#29=VERTEX_POINT('',#13);
#30=VERTEX_POINT('',#14);
#31=VERTEX_POINT('',#15);
#32=VERTEX_POINT('',#16);
#33=DIRECTION('',(1.000000,0.000000,0.000000));
#34=VECTOR('',#33,40.000000);
#35=LINE('',#1,#34);
#36=EDGE_CURVE('',#17,#18,#35,.T.);
#37=DIRECTION('',(0.000000,1.000000,0.000000));
#38=VECTOR('',#37,20.000000);
#39=LINE('',#2,#38);
#40=EDGE_CURVE('',#18,#19,#39,.T.);
#41=DIRECTION('',(-1.000000,0.000000,0.000000));
#42=VECTOR('',#41,15.000000);
#43=LINE('',#3,#42);
#44=EDGE_CURVE('',#19,#20,#43,.T.);
#45=DIRECTION('',(0.000000,-1.000000,0.000000));
#46=VECTOR('',#45,8.000000);
#47=LINE('',#4,#46);
#48=EDGE_CURVE('',#20,#21,#47,.T.);
#49=VECTOR('',#41,10.000000);
#50=LINE('',#5,#49);
#51=EDGE_CURVE('',#21,#22,#50,.T.);
#52=VECTOR('',#37,8.000000);
#53=LINE('',#6,#52);
#54=EDGE_CURVE('',#22,#23,#53,.T.);
#55=VECTOR('',#41,15.000000);
#56=LINE('',#7,#55);
#57=EDGE_CURVE('',#23,#24,#56,.T.);
#58=VECTOR('',#45,20.000000);
#59=LINE('',#8,#58);
#60=EDGE_CURVE('',#24,#17,#59,.T.);
#61=VECTOR('',#33,40.000000);
#62=LINE('',#9,#61);
#63=EDGE_CURVE('',#25,#26,#62,.T.);
#64=VECTOR('',#37,20.000000);
#65=LINE('',#10,#64);
#66=EDGE_CURVE('',#26,#27,#65,.T.);
#67=VECTOR('',#41,15.000000);
#68=LINE('',#11,#67);
#69=EDGE_CURVE('',#27,#28,#68,.T.);
#70=VECTOR('',#45,8.000000);
#71=LINE('',#12,#70);
#72=EDGE_CURVE('',#28,#29,#71,.T.);
#73=VECTOR('',#41,10.000000);
#74=LINE('',#13,#73);
#75=EDGE_CURVE('',#29,#30,#74,.T.);
#76=VECTOR('',#37,8.000000);
#77=LINE('',#14,#76);
#78=EDGE_CURVE('',#30,#31,#77,.T.);
#79=VECTOR('',#41,15.000000);
#80=LINE('',#15,#79);
#81=EDGE_CURVE('',#31,#32,#80,.T.);
#82=VECTOR('',#45,20.000000);
#83=LINE('',#16,#82);
#84=EDGE_CURVE('',#32,#25,#83,.T.);
#85=DIRECTION('',(0.000000,0.000000,1.000000));
#86=VECTOR('',#85,15.000000);
#87=LINE('',#1,#86);
#88=EDGE_CURVE('',#17,#25,#87,.T.);
#89=VECTOR('',#85,15.000000);
#90=LINE('',#2,#89);
#91=EDGE_CURVE('',#18,#26,#90,.T.);
#92=VECTOR('',#85,15.000000);
#93=LINE('',#3,#92);
#94=EDGE_CURVE('',#19,#27,#93,.T.);
#95=VECTOR('',#85,15.000000);
#96=LINE('',#4,#95);
#97=EDGE_CURVE('',#20,#28,#96,.T.);
#98=VECTOR('',#85,15.000000);
#99=LINE('',#5,#98);
#100=EDGE_CURVE('',#21,#29,#99,.T.);
#101=VECTOR('',#85,15.000000);
#102=LINE('',#6,#101);
#103=EDGE_CURVE('',#22,#30,#102,.T.);
#104=VECTOR('',#85,15.000000);
#105=LINE('',#7,#104);
#106=EDGE_CURVE('',#23,#31,#105,.T.);
#107=VECTOR('',#85,15.000000);
#108=LINE('',#8,#107);
#109=EDGE_CURVE('',#24,#32,#108,.T.);
#110=DIRECTION('',(0.000000,0.000000,-1.000000));
#111=ORIENTED_EDGE('',*,*,#36,.T.);
#112=ORIENTED_EDGE('',*,*,#40,.T.);
#113=ORIENTED_EDGE('',*,*,#44,.T.);
#114=ORIENTED_EDGE('',*,*,#48,.T.);
#115=ORIENTED_EDGE('',*,*,#51,.T.);
#116=ORIENTED_EDGE('',*,*,#54,.T.);
#117=ORIENTED_EDGE('',*,*,#57,.T.);
#118=ORIENTED_EDGE('',*,*,#60,.T.);
#119=EDGE_LOOP('',(#111,#112,#113,#114,#115,#116,#117,#118));
#120=FACE_OUTER_BOUND('',#119,.T.);
#121=AXIS2_PLACEMENT_3D('',#1,#110,#33);
#122=PLANE('',#121);
#123=ADVANCED_FACE('',(#120),#122,.T.);
#124=ORIENTED_EDGE('',*,*,#63,.T.);
#125=ORIENTED_EDGE('',*,*,#66,.T.);
#126=ORIENTED_EDGE('',*,*,#69,.T.);
#127=ORIENTED_EDGE('',*,*,#72,.T.);
#128=ORIENTED_EDGE('',*,*,#75,.T.);
#129=ORIENTED_EDGE('',*,*,#78,.T.);
#130=ORIENTED_EDGE('',*,*,#81,.T.);
#131=ORIENTED_EDGE('',*,*,#84,.T.);
#132=EDGE_LOOP('',(#124,#125,#126,#127,#128,#129,#130,#131));
#133=FACE_OUTER_BOUND('',#132,.T.);
#134=AXIS2_PLACEMENT_3D('',#9,#85,#33);
#135=PLANE('',#134);
#136=ADVANCED_FACE('',(#133),#135,.T.);
#137=ORIENTED_EDGE('',*,*,#36,.T.);
#138=ORIENTED_EDGE('',*,*,#91,.T.);
#139=ORIENTED_EDGE('',*,*,#63,.F.);
#140=ORIENTED_EDGE('',*,*,#88,.F.);
#141=EDGE_LOOP('',(#137,#138,#139,#140));
#142=FACE_OUTER_BOUND('',#141,.T.);
#143=AXIS2_PLACEMENT_3D('',#1,#45,#85);
#144=PLANE('',#143);
#145=ADVANCED_FACE('',(#142),#144,.T.);
#146=ORIENTED_EDGE('',*,*,#40,.T.);
#147=ORIENTED_EDGE('',*,*,#94,.T.);
#148=ORIENTED_EDGE('',*,*,#66,.F.);
#149=ORIENTED_EDGE('',*,*,#91,.F.);
#150=EDGE_LOOP('',(#146,#147,#148,#149));
#151=FACE_OUTER_BOUND('',#150,.T.);
#152=AXIS2_PLACEMENT_3D('',#2,#33,#85);
#153=PLANE('',#152);
#154=ADVANCED_FACE('',(#151),#153,.T.);
#155=ORIENTED_EDGE('',*,*,#44,.T.);
#156=ORIENTED_EDGE('',*,*,#97,.T.);
#157=ORIENTED_EDGE('',*,*,#69,.F.);
#158=ORIENTED_EDGE('',*,*,#94,.F.);
#159=EDGE_LOOP('',(#155,#156,#157,#158));
#160=FACE_OUTER_BOUND('',#159,.T.);
#161=AXIS2_PLACEMENT_3D('',#3,#37,#85);
#162=PLANE('',#161);
#163=ADVANCED_FACE('',(#160),#162,.T.);
#164=ORIENTED_EDGE('',*,*,#48,.T.);
#165=ORIENTED_EDGE('',*,*,#100,.T.);
#166=ORIENTED_EDGE('',*,*,#72,.F.);
#167=ORIENTED_EDGE('',*,*,#97,.F.);
#168=EDGE_LOOP('',(#164,#165,#166,#167));
#169=FACE_OUTER_BOUND('',#168,.T.);
#170=AXIS2_PLACEMENT_3D('',#4,#41,#85);
#171=PLANE('',#170);
#172=ADVANCED_FACE('',(#169),#171,.T.);
#173=ORIENTED_EDGE('',*,*,#51,.T.);
#174=ORIENTED_EDGE('',*,*,#103,.T.);
#175=ORIENTED_EDGE('',*,*,#75,.F.);
#176=ORIENTED_EDGE('',*,*,#100,.F.);
#177=EDGE_LOOP('',(#173,#174,#175,#176));
#178=FACE_OUTER_BOUND('',#177,.T.);
#179=AXIS2_PLACEMENT_3D('',#5,#37,#85);
#180=PLANE('',#179);
#181=ADVANCED_FACE('',(#178),#180,.T.);
#182=ORIENTED_EDGE('',*,*,#54,.T.);
#183=ORIENTED_EDGE('',*,*,#106,.T.);
#184=ORIENTED_EDGE('',*,*,#78,.F.);
#185=ORIENTED_EDGE('',*,*,#103,.F.);
#186=EDGE_LOOP('',(#182,#183,#184,#185));
#187=FACE_OUTER_BOUND('',#186,.T.);
#188=AXIS2_PLACEMENT_3D('',#6,#33,#85);
#189=PLANE('',#188);
#190=ADVANCED_FACE('',(#187),#189,.T.);
#191=ORIENTED_EDGE('',*,*,#57,.T.);
#192=ORIENTED_EDGE('',*,*,#109,.T.);
#193=ORIENTED_EDGE('',*,*,#81,.F.);
#194=ORIENTED_EDGE('',*,*,#106,.F.);
#195=EDGE_LOOP('',(#191,#192,#193,#194));
#196=FACE_OUTER_BOUND('',#195,.T.);
#197=AXIS2_PLACEMENT_3D('',#7,#37,#85);
#198=PLANE('',#197);
#199=ADVANCED_FACE('',(#196),#198,.T.);
#200=ORIENTED_EDGE('',*,*,#60,.T.);
#201=ORIENTED_EDGE('',*,*,#88,.T.);
#202=ORIENTED_EDGE('',*,*,#84,.F.);
#203=ORIENTED_EDGE('',*,*,#109,.F.);
#204=EDGE_LOOP('',(#200,#201,#202,#203));
#205=FACE_OUTER_BOUND('',#204,.T.);
#206=AXIS2_PLACEMENT_3D('',#8,#41,#85);
#207=PLANE('',#206);
#208=ADVANCED_FACE('',(#205),#207,.T.);
#209=CLOSED_SHELL('',(#123,#136,#145,#154,#163,#172,#181,#190,#199,#208));
#210=MANIFOLD_SOLID_BREP('terminalBlock',#209);
#211=(LENGTH_UNIT()NAMED_UNIT(*)SI_UNIT(.MILLI.,.METRE.));
#212=(NAMED_UNIT(*)PLANE_ANGLE_UNIT()SI_UNIT($,.RADIAN.));
#213=(NAMED_UNIT(*)SI_UNIT($,.STERADIAN.)SOLID_ANGLE_UNIT());
#214=UNCERTAINTY_MEASURE_WITH_UNIT(LENGTH_MEASURE(1.0E-6),#211,'distance_accuracy_value','confusion accuracy');
#215=(GEOMETRIC_REPRESENTATION_CONTEXT(3)GLOBAL_UNCERTAINTY_ASSIGNED_CONTEXT((#214))GLOBAL_UNIT_ASSIGNED_CONTEXT((#211,#212,#213))REPRESENTATION_CONTEXT('Context','3D'));
#216=SHAPE_REPRESENTATION('',(#210),#215);
#217=APPLICATION_CONTEXT('automotive design');
#218=PRODUCT_CONTEXT('',#217,'mechanical');
#219=PRODUCT('terminalBlock','terminalBlock','',(#218));
#220=PRODUCT_DEFINITION_FORMATION('','',#219);
#221=PRODUCT_DEFINITION_CONTEXT('part definition',#217,'design');
#222=PRODUCT_DEFINITION('design','',#220,#221);
#223=PRODUCT_DEFINITION_SHAPE('','',#222);
#224=SHAPE_DEFINITION_REPRESENTATION(#223,#216);
ENDSEC;
END-ISO-10303-21;
